<?xml version="1.0" encoding="UTF-8" standalone="no"?>
<svg xmlns="http://www.w3.org/2000/svg" width="267" height="247" viewBox="13 18 267 247">
  <title>IK</title>
  <defs>
    <clipPath id="flagClip"><rect x="15" y="20" width="45" height="30"/></clipPath>
  </defs>
  <g clip-path="url(#flagClip)">
    <rect x="15" y="20" width="45" height="30" fill="#012169"/>
    <path d="M15 20 L20.2 20 L60 46.5 L60 50 L54.8 50 L15 23.5 Z" fill="#FFFFFF"/>
    <path d="M60 20 L54.8 20 L15 46.5 L15 50 L20.2 50 L60 23.5 Z" fill="#FFFFFF"/>
    <path d="M15 20 L17.9 20 L60 48.0 L60 50 L57.1 50 L15 22.0 Z" fill="#C8102E"/>
    <path d="M60 20 L57.1 20 L15 48.0 L15 50 L17.9 50 L60 22.0 Z" fill="#C8102E"/>
    <rect x="32" y="20" width="11" height="30" fill="#FFFFFF"/>
    <rect x="15" y="29.5" width="45" height="11" fill="#FFFFFF"/>
    <rect x="35" y="20" width="5" height="30" fill="#C8102E"/>
    <rect x="15" y="32.5" width="45" height="5" fill="#C8102E"/>
  </g>
  <path d="M18 59 L61 60 L61 263 L17 263 L17 60 Z" fill="#000000"/>
  <path d="M95 60 L95 263 L138 263 L140 176 L217 263 L278 263 L184 157 L264 60 L211 61 L142 143 L138 141 L138 59 Z" fill="#000000"/>
</svg>
